<?xml version="1.0" encoding="UTF-8"?> <svg xmlns="http://www.w3.org/2000/svg" width="420" height="120" viewBox="0 0 420 120" fill="none"><path d="M285.133 43.9803V49.9672C285.133 50.506 285.073 51.1047 285.073 51.8231C285.013 55.3553 284.893 61.2823 281.361 67.2093C274.237 79.2429 258.97 81.3383 255.917 81.6377L254.779 81.7574V74.214L255.677 74.0942C257.054 73.9146 269.088 72.2383 273.937 63.1383C275.913 59.4264 276.332 55.8343 276.332 53.3797C276.332 50.9251 276.332 52.0626 276.272 51.5836H246.338V35H255.019V43.9204H285.133V43.9803Z" fill="#2C2A33"></path><path d="M329.795 43.9803V49.9672C329.795 50.506 329.795 51.1047 329.736 51.7632C329.676 55.2955 329.556 61.2225 326.024 67.2093C318.959 79.2429 303.633 81.3383 300.58 81.6377L299.442 81.7574V74.214L300.34 74.0942C301.657 73.9146 313.691 72.2383 318.6 63.1383C320.576 59.4264 320.995 55.8343 320.995 53.3797C320.995 50.9251 320.995 52.0626 320.935 51.5836H291.001V35H299.682V43.9204H329.795V43.9803Z" fill="#2C2A33"></path><path d="M374.996 62.2399C375.116 68.107 372.601 73.0162 367.752 76.3689C362.783 79.8412 356.078 81.2781 349.492 81.2781C342.906 81.2781 339.913 80.4998 335.962 79.1827L335.543 79.0629V70.7412L336.381 70.9807C346.319 74.1537 358.891 74.9919 364.339 67.8076C366.914 64.455 366.914 60.0846 364.339 56.7319C360.747 52.0023 351.528 48.7694 336.381 53.6188L335.543 53.8582V45.5365L335.962 45.4168C345.241 42.3036 359.131 42.2437 367.752 48.1707C372.601 51.5234 375.116 56.4326 374.996 62.2997V62.2399Z" fill="#2C2A33"></path><path d="M96.7264 49.9669V58.2288H93.9125V49.9669C93.9125 46.4346 92.9546 44.6985 89.1829 44.6985H81.4599V58.1689H78.7059V44.6985H76.2513V42.3037H89.3026C91.5777 42.3037 93.4934 42.7827 94.631 43.8004C96.2474 45.0577 96.6665 47.1531 96.6665 49.907L96.7264 49.9669Z" fill="#2C2A33"></path><path d="M105.646 42.3633V58.2285H102.892V44.758H98.941V42.3633H105.646Z" fill="#2C2A33"></path><path d="M109.479 48.5896V42.3633H112.233V48.5896C112.233 53.3192 114.567 56.0732 118.818 56.0732C123.069 56.0732 125.404 53.3791 125.404 49.7271C125.404 46.0751 123.727 44.758 120.614 44.758H117.561V42.3633H120.614C125.404 42.3633 128.158 44.6383 128.158 49.7271C128.158 54.816 124.625 58.4679 118.818 58.4679C113.011 58.4679 109.479 54.7561 109.479 48.5896Z" fill="#2C2A33"></path><path d="M136.479 42.3633V52.4212H133.725V44.758H129.773V42.3633H136.479Z" fill="#2C2A33"></path><path d="M155.877 55.8936H158.391V58.2285H139.233V55.8936H153.063V50.0265C153.063 46.4942 152.105 44.758 148.333 44.758H139.952V42.3633H148.453C150.728 42.3633 152.704 42.8422 153.841 43.86C155.398 45.1172 155.877 47.2126 155.877 49.9666V55.8337V55.8936Z" fill="#2C2A33"></path><path d="M45 81.3974V65.5322H55.8961C61.2244 65.5322 63.4395 68.2862 63.4395 73.1355V81.3974H45ZM47.6941 79.0027H60.6257V73.1954C60.6257 69.5434 59.6079 67.927 55.8362 67.927H47.754V79.0027H47.6941Z" fill="#2C2A33"></path><path d="M72.0008 65.5322V75.5902H69.2468V67.927H65.2955V65.5921H72.0008V65.5322Z" fill="#2C2A33"></path><path d="M94.3314 73.495C94.3314 78.2845 90.3202 81.697 84.932 81.697C79.5439 81.697 75.5925 78.2845 75.5925 73.495C75.5925 68.7055 79.6037 65.293 84.932 65.293C90.2603 65.293 94.3314 68.7653 94.3314 73.495ZM78.3465 73.495C78.3465 76.9674 81.1004 79.3022 84.932 79.3022C88.7636 79.3022 91.4577 76.9674 91.4577 73.495C91.4577 70.0226 88.7636 67.7476 84.932 67.7476C81.1004 67.7476 78.3465 70.0825 78.3465 73.495Z" fill="#2C2A33"></path><path d="M97.624 65.5322H104.15V81.3974H96.4865V79.0625H101.396V67.927H97.6839V65.5921L97.624 65.5322Z" fill="#2C2A33"></path><path d="M109 65.5322H115.526V81.3974H107.863V79.0625H112.772V67.927H109.06V65.5921L109 65.5322Z" fill="#2C2A33"></path><path d="M125.463 65.5322V75.5902H122.709V67.927H118.758V65.5921H125.463V65.5322Z" fill="#2C2A33"></path><path d="M129.954 80.799V78.3443C131.63 78.8233 133.905 79.2424 136.659 79.2424C141.568 79.2424 144.562 76.9674 144.562 73.1358C144.562 69.3042 142.107 67.6278 137.916 67.6278H137.677C134.025 67.6278 131.63 69.1246 131.63 71.3397C131.63 73.5548 133.486 73.6147 135.881 73.6147V75.8897C131.45 75.8897 128.816 74.3331 128.816 71.22C128.816 68.1068 132.348 65.293 137.617 65.293H137.976C143.843 65.293 147.316 68.2265 147.316 73.1956C147.316 78.1647 143.304 81.697 136.659 81.697C130.013 81.697 131.75 81.3378 129.954 80.8588V80.799Z" fill="#2C2A33"></path><path d="M155.817 65.5322V81.3974H153.063V67.927H149.111V65.5921H155.817V65.5322Z" fill="#2C2A33"></path><path d="M214.308 60.9834C214.308 56.3735 225.324 55.4156 233.885 55.8347C233.885 52.1228 233.885 46.0162 233.885 41.5261C220.235 39.0116 206.166 42.0649 201.856 53.3801C197.545 42.0649 183.536 39.0116 169.826 41.5261C169.826 45.9564 169.826 52.1228 169.826 55.8347C178.387 55.4156 189.403 56.3735 189.403 60.9834C189.403 65.5933 177.848 65.9525 169.826 65.8926C169.826 69.6045 169.826 76.4295 169.826 80.8598C183.476 83.2545 197.545 79.5427 201.856 68.0479C206.166 79.6026 220.235 83.3144 233.885 80.8598C233.885 76.4295 233.885 69.6045 233.885 65.8926C225.863 66.0124 214.308 65.8926 214.308 60.9834Z" fill="#3D6CED"></path></svg> 