<?xml version="1.0" encoding="UTF-8" standalone="no"?>
<svg
   xmlns:dc="http://purl.org/dc/elements/1.1/"
   xmlns:cc="http://creativecommons.org/ns#"
   xmlns:rdf="http://www.w3.org/1999/02/22-rdf-syntax-ns#"
   xmlns:svg="http://www.w3.org/2000/svg"
   xmlns="http://www.w3.org/2000/svg"
   xmlns:sodipodi="http://sodipodi.sourceforge.net/DTD/sodipodi-0.dtd"
   xmlns:inkscape="http://www.inkscape.org/namespaces/inkscape"
   version="1.1"
   id="svg115"
   xml:space="preserve"
   width="500"
   height="207.81407"
   viewBox="0 0 500 207.81407"
   sodipodi:docname="meitavvvvvv.svg"
   inkscape:version="1.0.1 (c497b03c, 2020-09-10)"><metadata
     id="metadata121"><rdf:RDF><cc:Work
         rdf:about=""><dc:format>image/svg+xml</dc:format><dc:type
           rdf:resource="http://purl.org/dc/dcmitype/StillImage" /><dc:title></dc:title></cc:Work></rdf:RDF></metadata><defs
     id="defs119"><clipPath
       clipPathUnits="userSpaceOnUse"
       id="clipPath133"><path
         d="M 0,0 H 595.276 V 841.89 H 0 Z"
         id="path131" /></clipPath></defs><sodipodi:namedview
     pagecolor="#ffffff"
     bordercolor="#666666"
     borderopacity="1"
     objecttolerance="10"
     gridtolerance="10"
     guidetolerance="10"
     inkscape:pageopacity="0"
     inkscape:pageshadow="2"
     inkscape:window-width="981"
     inkscape:window-height="480"
     id="namedview117"
     showgrid="false"
     inkscape:zoom="0.50689519"
     inkscape:cx="-225.24442"
     inkscape:cy="102.19877"
     inkscape:window-x="41"
     inkscape:window-y="156"
     inkscape:window-maximized="0"
     inkscape:current-layer="g123" /><g
     id="g123"
     inkscape:groupmode="layer"
     inkscape:label="22894822-מערכת-כללים-לבירור-וליישוב-תביעות-ולטיפול-בפניות-הציבור (dragged)"
     transform="matrix(1.3333333,0,0,-1.3333333,-71.811065,1101.424)"><g
       id="g125" /><text
       transform="scale(1,-1)"
       style="font-variant:normal;font-weight:normal;font-size:10px;font-family:Generic0;-inkscape-font-specification:Generic0-Regular;writing-mode:lr-tb;fill:#000000;fill-opacity:1;fill-rule:nonzero;stroke:none"
       id="text157"
       x="396.73001"
       y="-767.38202"><tspan
         x="396.73001 401.92001 404.54999 409.82999 412.28 417.82001 420.41 427 429.63 432.06 435.42001 440.92001 446.51999 449.11002 454.19 456.82001 462.5 465.10999 471.20001 473.82999 476.42001 483.01001 485.64001 491.23999 493.87 501 507.59 510.17999 512.81 519.23999 525.82001 528.40997"
         y="-767.38202"
         sodipodi:role="line"
         id="tspan155"></tspan></text><text
       transform="scale(1,-1)"
       style="font-variant:normal;font-weight:normal;font-size:10px;font-family:Generic0;-inkscape-font-specification:Generic0-Regular;writing-mode:lr-tb;fill:#000000;fill-opacity:1;fill-rule:nonzero;stroke:none"
       id="text161"
       x="530.97198"
       y="-767.38202"><tspan
         x="530.97198 534.862"
         y="-767.38202"
         sodipodi:role="line"
         id="tspan159"></tspan></text><text
       transform="scale(1,-1)"
       style="font-variant:normal;font-weight:normal;font-size:10px;font-family:Generic1;-inkscape-font-specification:Generic1-Regular;writing-mode:lr-tb;fill:#000000;fill-opacity:1;fill-rule:nonzero;stroke:none"
       id="text165"
       x="66.57"
       y="-753.38202"><tspan
         x="66.57 69.160004 74.440002 80.5 86.209999 88.800003 94.959999 100.24 102.48 105.88 110.57 113.16 119.3 125.01 127.6 129.84 131.95 137.65001 139.56 142.15001 147.43001 149.67 155.05 157.12001 162.53 168.23001 170.82001 177.35001 179.59 181.55 184.94 190.28 192.87001 197.89001 203.3 205.89001 211.87001 215.26001 217.5 223.92001 230.22 234.91 237.5 243.53001 249.32001 254.35001 261.20999 264.26999 266.85999 273 278.70999 281.29999 283.54001 285.64999 291.01999 293.60999 295.54001 301.20001 306.89999 309.14001 315.34 317.92999 320.17001 325.88 328.47 334.84 336.95001 343.19 348.60001 351.19 356.22 362.92001 365.51001 371.31 377.84 382.82001 388.19 390.78 396.64999 398.62 402.01001 407.34 409.92999 414.95001 419.87 424.56 427.14999 432.95001 439.48001 444.46002 449.83002 452.42001 457.81 459.97 466.99002 473.19 475.78 481.92999 486.95001 492.92001 496.20001 502.67001 508.37 510.96002 516.89001 522.07001 527.77002 533.94"
         y="-753.38202"
         sodipodi:role="line"
         id="tspan163"></tspan></text><text
       transform="scale(1,-1)"
       style="font-variant:normal;font-weight:normal;font-size:10px;font-family:Generic1;-inkscape-font-specification:Generic1-Regular;writing-mode:lr-tb;fill:#000000;fill-opacity:1;fill-rule:nonzero;stroke:none"
       id="text169"
       x="150.62"
       y="-739.38202"><tspan
         x="150.62 152.67999 158.56 160.53 163.92 169.58 175.61 178.2 184.35001 189.39 195.09 201.2 203.78999 209.37 215.10001 217.34 223.77 230.28999 232.88 238.98 241.09 247.61 249.72"
         y="-739.38202"
         sodipodi:role="line"
         id="tspan167"></tspan></text><text
       transform="scale(1,-1)"
       style="font-variant:normal;font-weight:normal;font-size:10px;font-family:Generic1;-inkscape-font-specification:Generic1-Regular;writing-mode:lr-tb;fill:#000000;fill-opacity:1;fill-rule:nonzero;stroke:none"
       id="text173"
       x="252.28"
       y="-739.38202"><tspan
         x="252.28 257.35999"
         y="-739.38202"
         sodipodi:role="line"
         id="tspan171"></tspan></text><text
       transform="scale(1,-1)"
       style="font-variant:normal;font-weight:normal;font-size:10px;font-family:Generic1;-inkscape-font-specification:Generic1-Regular;writing-mode:lr-tb;fill:#000000;fill-opacity:1;fill-rule:nonzero;stroke:none"
       id="text177"
       x="263.14999"
       y="-739.38202"><tspan
         x="263.14999 267.43301 273.95599 276.54901 281.832 288.005 290.24799 296.241 298.354 300.94699 306.97 311.99301 314.586 320.51901 325.802 331.91501 338.43799 341.03101 346.05399 351.017 356.72 358.96301 361.556 363.48898 365.73199 367.815 369.78799 373.10098 378.83398 384.867 387.45999 393.99301 396.23599 401.61899 403.78201 409.41501 412.758 418.461 421.05402 426.177 428.29001 433.853 439.866 442.45901 444.702 451.22501 454.948 457.54102 462.564 464.80701 471.34 473.93301 476.00601 482.14899 487.172 493.14499 496.42801 502.901 508.93399 511.52701 517.46002 522.64301 528.34601 534.42902"
         y="-739.38202"
         sodipodi:role="line"
         id="tspan175"></tspan></text><text
       transform="scale(1,-1)"
       style="font-variant:normal;font-weight:normal;font-size:10px;font-family:Generic0;-inkscape-font-specification:Generic0-Regular;writing-mode:lr-tb;fill:#000000;fill-opacity:1;fill-rule:nonzero;stroke:none"
       id="text181"
       x="472.85999"
       y="-725.38202"><tspan
         x="472.85999 475.45001 481.47 483.94 489.95999 496.39001 502.04999 508.03 510.62 513.25 519.70001 526.27997 528.87"
         y="-725.38202"
         sodipodi:role="line"
         id="tspan179"></tspan></text><text
       transform="scale(1,-1)"
       style="font-variant:normal;font-weight:normal;font-size:10px;font-family:Generic0;-inkscape-font-specification:Generic0-Regular;writing-mode:lr-tb;fill:#000000;fill-opacity:1;fill-rule:nonzero;stroke:none"
       id="text185"
       x="531.43903"
       y="-725.38202"><tspan
         x="531.43903 535.32898"
         y="-725.38202"
         sodipodi:role="line"
         id="tspan183"></tspan></text><text
       transform="scale(1,-1)"
       style="font-variant:normal;font-weight:normal;font-size:10px;font-family:Generic1;-inkscape-font-specification:Generic1-Regular;writing-mode:lr-tb;fill:#000000;fill-opacity:1;fill-rule:nonzero;stroke:none"
       id="text189"
       x="121.51"
       y="-711.38202"><tspan
         x="121.51 123.57 129.56 136.58 142.69 148.39 154.42 157.00999 163.16 168.19 173.89 180 182.59 188.17 193.89999 196.14 202.56999 209.09 211.67999 217.78 219.84 225.95 231.69 237.42 240.00999 242.12 248.64 250.75"
         y="-711.38202"
         sodipodi:role="line"
         id="tspan187"></tspan></text><text
       transform="scale(1,-1)"
       style="font-variant:normal;font-weight:normal;font-size:10px;font-family:Generic1;-inkscape-font-specification:Generic1-Regular;writing-mode:lr-tb;fill:#000000;fill-opacity:1;fill-rule:nonzero;stroke:none"
       id="text193"
       x="253.34"
       y="-711.38202"><tspan
         x="253.34 256.84"
         y="-711.38202"
         sodipodi:role="line"
         id="tspan191"></tspan></text><text
       transform="scale(1,-1)"
       style="font-variant:normal;font-weight:normal;font-size:10px;font-family:Generic1;-inkscape-font-specification:Generic1-Regular;writing-mode:lr-tb;fill:#000000;fill-opacity:1;fill-rule:nonzero;stroke:none"
       id="text197"
       x="261.98001"
       y="-711.38202"><tspan
         x="261.98001 264.57001 269.59 271.82999 278.26001 283.95999 286.54999 288.48001 290.72 292.95999 296.35001 302.41 308.94 314.97 317.56 319.79999 326.32001 328.91 334.97 341.32001 347.04999 353.07999 355.67001 357.60001 359.84 366.32999 373.35001 379.45999 385.16 387.75 389.85999 395.26999 400.29001 402.88 404.81 410.47 416.17001 418.41 424.55002 429.57001 432.16 437.44 439.67999 445.51999 451.87 458.39999 460.98999 467.14001 472.16 478.13 481.41 487.88 493.91 496.5 502.42999 507.61002 513.31 519.47998 525.51001 528.09998 531.02997 537.07001"
         y="-711.38202"
         sodipodi:role="line"
         id="tspan195"></tspan></text><text
       transform="scale(1,-1)"
       style="font-variant:normal;font-weight:normal;font-size:10px;font-family:Generic1;-inkscape-font-specification:Generic1-Regular;writing-mode:lr-tb;fill:#000000;fill-opacity:1;fill-rule:nonzero;stroke:none"
       id="text201"
       x="206.00999"
       y="-697.38202"><tspan
         x="206.00999 207.797 213.584 216.97099 222.198 227.985 231.37199 233.339 239.37601 245.403 247.99001 253.24699 259.664 265.651 271.34799 273.935 279.94199 285.349 291.48599 294.83301 301.85001 304.43701 306.67401 308.91101 312.298 318.35501 324.88199 330.909 333.496 339.62302 345.63 347.867 351.17401 356.19101 358.77802 364.435 370.13199 372.36899 378.896 384.923 387.51001 393.91699 399.95401 402.54102 409.06799 411.30499 414.69202 420.349 425.98599 431.00299 433.59 435.827 442.194 444.16101 447.548 450.13501 451.50201 456.51901 458.526 464.28302 469.30002 471.88702 477.164 479.401 485.83801 491.875 497.90201 500.48901 507.01602 509.25302 514.40002 520.69702 525.71399 528.30096 531.22797 536.92499"
         y="-697.38202"
         sodipodi:role="line"
         id="tspan199"></tspan></text><text
       transform="scale(1,-1)"
       style="font-variant:normal;font-weight:normal;font-size:10px;font-family:Generic1;-inkscape-font-specification:Generic1-Regular;writing-mode:lr-tb;fill:#000000;fill-opacity:1;fill-rule:nonzero;stroke:none"
       id="text205"
       x="66.57"
       y="-683.38202"><tspan
         x="66.57 69.161003 71.171997 76.653 78.533997 81.025002 85.945999 91.446999 93.938004 99.488998 104.28 106.771 111.902 117.64301 123.684 126.835 129.326 134.457 141.338 147.13901 149.63 154.42101 160.862 166.603 172.894 175.38501 180.306 185.237 191.528 194.019 195.85001 197.99101 200.00201 204.923 210.42401 212.91501 219.06601 221.207 227.638 233.57901 236.07001 241.621 247.222 249.36301 255.79401 261.595 264.086 269.21701 276.09799 281.909 284.39999 289.19101 295.63199 301.37299 307.664 310.155 315.07599 320.00699 326.298 328.789 334.79001 336.75101 342.72202 348.97302 354.604 360.405 362.896 364.72702 366.86801 373.24899 380.17001 386.181 391.65201 394.14301 396.15402 401.45502 406.246 408.737 410.56799 416.11902 421.72 423.86099 429.91202 434.703 437.194 442.375 444.51602 450.25702 456.508 462.80902 465.30002 471.35101 476.272 482.14301 485.32401 491.69501 497.496 499.987 505.81799 510.89902 516.5 522.57098 528.37201 530.86298 533.69397 537.08502"
         y="-683.38202"
         sodipodi:role="line"
         id="tspan203"></tspan></text><text
       transform="scale(1,-1)"
       style="font-variant:normal;font-weight:normal;font-size:10px;font-family:Generic1;-inkscape-font-specification:Generic1-Regular;writing-mode:lr-tb;fill:#000000;fill-opacity:1;fill-rule:nonzero;stroke:none"
       id="text209"
       x="111.63"
       y="-669.38202"><tspan
         x="111.63 114.22 116.28 122.27 129.28999 135.39999 141.10001 147.13 149.72 155.87 160.91 166.61 172.72 175.31 180.89 186.62 188.86 195.29001 201.81 204.39999 210.5 212.56 218.67 224.41 230.14 232.73 234.84 241.36 243.47"
         y="-669.38202"
         sodipodi:role="line"
         id="tspan207"></tspan></text><text
       transform="scale(1,-1)"
       style="font-variant:normal;font-weight:normal;font-size:10px;font-family:Generic1;-inkscape-font-specification:Generic1-Regular;writing-mode:lr-tb;fill:#000000;fill-opacity:1;fill-rule:nonzero;stroke:none"
       id="text213"
       x="246.05099"
       y="-669.38202"><tspan
         x="246.05099 251.08099"
         y="-669.38202"
         sodipodi:role="line"
         id="tspan211"></tspan></text><text
       transform="scale(1,-1)"
       style="font-variant:normal;font-weight:normal;font-size:10px;font-family:Generic1;-inkscape-font-specification:Generic1-Regular;writing-mode:lr-tb;fill:#000000;fill-opacity:1;fill-rule:nonzero;stroke:none"
       id="text217"
       x="254.57001"
       y="-669.38202"><tspan
         x="254.57001 257.16 262.17999 264.42001 270.85001 276.54999 279.14001 281.07001 286.73001 292.42999 294.67001 301.20001 307.23001 309.82001 316.35001 321.39001 327.94 333.89999 339.92999 342.51999 348.69 350.92999 355.95999 362.48001 365.07001 370.72 375.72 381.11002 387.14999 389.73999 394.76999 400.47 406.54001 413.07001 419.10001 421.69 426.92001 433.91 439.95001 442.54001 447.42999 453.98001 459.82999 466.35001 468.94 473.95999 478.98999 485.51001 488.10001 490.34 496.38 498.97 500.89999 506.54999 512.25 514.48999 521.02002 527.04999 529.64001 532.22998 534.82001 537.40997"
         y="-669.38202"
         sodipodi:role="line"
         id="tspan215"></tspan></text><text
       transform="scale(1,-1)"
       style="font-variant:normal;font-weight:normal;font-size:10px;font-family:Generic0;-inkscape-font-specification:Generic0-Regular;writing-mode:lr-tb;fill:#000000;fill-opacity:1;fill-rule:nonzero;stroke:none"
       id="text221"
       x="475.03"
       y="-655.38202"><tspan
         x="475.03 480.84201 483.32401 485.84601 491.59799 497.07999 499.672 506.11401 511.79599 517.27802 519.90997 525.89203 528.48401"
         y="-655.38202"
         sodipodi:role="line"
         id="tspan219"></tspan></text><text
       transform="scale(1,-1)"
       style="font-variant:normal;font-weight:normal;font-size:10px;font-family:Generic0;-inkscape-font-specification:Generic0-Regular;writing-mode:lr-tb;fill:#000000;fill-opacity:1;fill-rule:nonzero;stroke:none"
       id="text225"
       x="531.03998"
       y="-655.38202"><tspan
         x="531.03998 534.92999"
         y="-655.38202"
         sodipodi:role="line"
         id="tspan223"></tspan></text><text
       transform="scale(1,-1)"
       style="font-variant:normal;font-weight:normal;font-size:10px;font-family:Generic1;-inkscape-font-specification:Generic1-Regular;writing-mode:lr-tb;fill:#000000;fill-opacity:1;fill-rule:nonzero;stroke:none"
       id="text229"
       x="66.559998"
       y="-641.38202"><tspan
         x="66.559998 69.150002 75.32 78.790001 81.379997 83.620003 88.650002 93.669998 98.849998 100.94 103.53 109.4 111.48 113.59 119.38 124.88 130.89 133.48 135.54001 141.64999 143.89 150.41 152.38 155.75 158.34 160.39999"
         y="-641.38202"
         sodipodi:role="line"
         id="tspan227"></tspan></text><text
       transform="scale(1,-1)"
       style="font-variant:normal;font-weight:normal;font-size:10px;font-family:Generic0;-inkscape-font-specification:Generic0-Regular;writing-mode:lr-tb;fill:#000000;fill-opacity:1;fill-rule:nonzero;stroke:none"
       id="text233"
       x="163.342"
       y="-641.38202"><tspan
         x="163.342 167.43201 173.242 175.722 178.242 183.992 189.40199 195.37199 197.96201 204.392 210.07201 215.552 218.18201 224.07201 228.15199"
         y="-641.38202"
         sodipodi:role="line"
         id="tspan231"></tspan></text><text
       transform="scale(1,-1)"
       style="font-variant:normal;font-weight:normal;font-size:10px;font-family:Generic1;-inkscape-font-specification:Generic1-Regular;writing-mode:lr-tb;fill:#000000;fill-opacity:1;fill-rule:nonzero;stroke:none"
       id="text237"
       x="230.745"
       y="-641.38202"><tspan
         x="230.745 233.155 235.395 240.41499 246.05501 251.075 253.985 256.57501 262.375 268.905 273.88501 279.565 282.155 288.005 293.76501 299.345 301.58499 307.595 310.185 315.845 321.54501 323.785 329.92499 334.92499 337.51498 342.79501 345.035 350.875 357.22501 363.73502 366.32501 372.42499 375.01501 380.86499 386.57501 388.685 394.47501 400.98502 403.57501 409.94501 412.02499 414.13501 419.92499 425.48502 428.07501 433.095 438.815 441.405 447.55499 452.57501 458.54501 461.82501 468.29501 474.30499 476.89499 482.82501 488.005 493.70499 499.875 505.89499 508.48499 514.46503 520.63501 522.745 527.76501 533.935"
         y="-641.38202"
         sodipodi:role="line"
         id="tspan235"></tspan></text><text
       transform="scale(1,-1)"
       style="font-variant:normal;font-weight:normal;font-size:10px;font-family:Generic1;-inkscape-font-specification:Generic1-Regular;writing-mode:lr-tb;fill:#000000;fill-opacity:1;fill-rule:nonzero;stroke:none"
       id="text241"
       x="66.559998"
       y="-627.38202"><tspan
         x="66.559998 69.150002 75.019997 80.050003 87.07 93.300003 95.889999 101.12 108.11 114.68 117.27 119.51 121.62 127.11 133.67 136.25999 142.79001 145.03 151.14 156.42 158.66 165.22 167.81 170.05 176.62 179.21001 181.32001 187.49001 189.73 195.89999 198.00999 203.70999 210.25999 212.84999 214.95999 217.2 223.20999 225.28 230.45999 237.02 239.61 246.63 248.87 254.45 256.56 263.26001 265.85001 271.42999 277.16 279.39999 285.66 291.89999 294.48999 296.73001 303.30002 305.89001 312.42001 314.66 320.28 325.51001 331.41 336.82001 342.85001 349.41 352 357.57999 363.31 365.54999 371.81 378.04001 380.63 382.87 388.51999 394.22 400.32999 403.67999 411.23999 413.82999 417.32001 419.39999 421.56 427.51999 434.07999 436.66998 438.91 445.48001 448.07001 453.94 455.91 459.29999 465.82999 472.38998 474.98001 476.91 479.14999 481.38998 484.78 490.84 497.37 503.92999 506.51999 508.48999 514.48999 517.88 524.94 527.53003 533.95001"
         y="-627.38202"
         sodipodi:role="line"
         id="tspan239"></tspan></text><text
       transform="scale(1,-1)"
       style="font-variant:normal;font-weight:normal;font-size:10px;font-family:Generic1;-inkscape-font-specification:Generic1-Regular;writing-mode:lr-tb;fill:#000000;fill-opacity:1;fill-rule:nonzero;stroke:none"
       id="text245"
       x="366.133"
       y="-613.38202"><tspan
         x="366.133"
         y="-613.38202"
         id="tspan243"></tspan></text><text
       transform="scale(1,-1)"
       style="font-variant:normal;font-weight:normal;font-size:10px;font-family:Generic1;-inkscape-font-specification:Generic1-Regular;writing-mode:lr-tb;fill:#000000;fill-opacity:1;fill-rule:nonzero;stroke:none"
       id="text249"
       x="366.133"
       y="-613.38202"><tspan
         x="366.133 368.19299 374.44299 380.323 382.43301 387.453 393.18301 395.77301 402.30301 407.353 413.90302 419.53299 422.923 425.513 431.383 433.46301 435.573 441.36301 446.86301 452.84299 459.86301 462.453 467.47299 472.53299 477.71301 480.30301 482.233 488.09299 493.80301 495.91299 501.703 508.233 514.263 516.85303 523.22302 525.33301 531.12299 536.61298"
         y="-613.38202"
         sodipodi:role="line"
         id="tspan247"></tspan></text><text
       transform="scale(1,-1)"
       style="font-variant:normal;font-weight:normal;font-size:10px;font-family:Generic0;-inkscape-font-specification:Generic0-Regular;writing-mode:lr-tb;fill:#000000;fill-opacity:1;fill-rule:nonzero;stroke:none"
       id="text253"
       x="435.81299"
       y="-599.38202"><tspan
         x="435.81299 438.40302 444.423 446.91299 451.733 458.383 464.03299 470.61301 473.24301 475.83301 481.513 486.99301 489.513 496.09299 498.68301 505.173 510.19299 512.71301 519.36298 526.49298 529.08301"
         y="-599.38202"
         sodipodi:role="line"
         id="tspan251"></tspan></text><text
       transform="scale(1,-1)"
       style="font-variant:normal;font-weight:normal;font-size:10px;font-family:Generic0;-inkscape-font-specification:Generic0-Regular;writing-mode:lr-tb;fill:#000000;fill-opacity:1;fill-rule:nonzero;stroke:none"
       id="text257"
       x="531.65302"
       y="-599.38202"><tspan
         x="531.65302 535.54303"
         y="-599.38202"
         sodipodi:role="line"
         id="tspan255"></tspan></text><text
       transform="scale(1,-1)"
       style="font-variant:normal;font-weight:normal;font-size:10px;font-family:Generic1;-inkscape-font-specification:Generic1-Regular;writing-mode:lr-tb;fill:#000000;fill-opacity:1;fill-rule:nonzero;stroke:none"
       id="text261"
       x="66.583"
       y="-585.38202"><tspan
         x="66.583 69.174004 73.945 80.765999 86.857002 91.678001 93.588997 95.979996 97.710999 99.751999 104.833 110.744 116.455 118.846 124.657 130.98799 133.02899 138.81 144.19099 146.582 148.623 154.96399 161.66499 164.056 168.877 174.28799 176.679 178.72 180.761 186.132 192.953 198.80399 201.19499 206.01599 211.847 213.88799 216.96899 223.17 225.56099 230.94199 232.98299 238.394 240.78499 245.60599 250.467 252.85799 254.739 260.91 262.82101 268.862 274.423 279.12399 281.51501 287.41599 289.22699 294.62799 297.91901 299.95999 303.151 308.85199 311.24301 317.14401 319.01501 323.84601 330.18701 335.828 342.099 347.92999 349.841 352.23199 357.793 363.17401 365.08502 371.35602 377.06702 379.45801 384.27902 389.14001 391.53101 397.742 403.453 405.84399 411.54501 417.59601 422.767 428.328 433.02902 435.42001 440.50101 442.54202 448.883 455.70401 461.91501 464.306 470.25702 475.078 480.849 483.92999 490.20102 495.91202 498.30301 504.034 509.01501 514.51599 520.487 526.198 528.58899 531.32001 537.16101"
         y="-585.38202"
         sodipodi:role="line"
         id="tspan259"></tspan></text><text
       transform="scale(1,-1)"
       style="font-variant:normal;font-weight:normal;font-size:10px;font-family:Generic1;-inkscape-font-specification:Generic1-Regular;writing-mode:lr-tb;fill:#000000;fill-opacity:1;fill-rule:nonzero;stroke:none"
       id="text265"
       x="208.50301"
       y="-571.38202"><tspan
         x="208.50301 209.992 215.17101 217.31 223.659 229.618 234.69701 237.186 243.455 245.464 251.603 257.23199 263.16101 265.64999 271.759 278.67801 281.16699 286.086 291.715 294.20401 296.34299 298.48199 303.95099 310.87 316.939 319.42801 324.34702 330.276 332.41501 335.59399 342.013 344.50198 350.931 353.07001 355.039 360.58801 365.50699 367.996 372.935 378.414 384.44299 391.362 393.85101 399.03 404.98898 410.918 415.83701 418.32599 424.32501 426.194 429.44299 436.362 438.85101 444.41 449.879 456.798 459.28699 465.716 467.85498 473.944 479.25299 484.172 486.66098 491.59 498.509 500.99799 506.94699 512.50598 514.64502 520.61401 527.04303 529.63202 532.22101 534.81 537.39899"
         y="-571.38202"
         sodipodi:role="line"
         id="tspan263"></tspan></text><text
       transform="scale(1,-1)"
       style="font-variant:normal;font-weight:normal;font-size:10px;font-family:Generic1;-inkscape-font-specification:Generic1-Regular;writing-mode:lr-tb;fill:#000000;fill-opacity:1;fill-rule:nonzero;stroke:none"
       id="text269"
       x="66.583"
       y="-557.38202"><tspan
         x="66.583 69.174004 71.004997 73.146004 75.287003 78.568001 84.539001 90.970001 96.801003 99.292 101.303 106.774 109.265 114.186 119.727 122.21799 127.969 133.58 135.591 141.282 147.33299 152.15399 154.64499 160.646 162.55699 168.058 171.44899 173.59 176.871 182.702 185.19299 191.194 193.16499 198.09599 204.53699 210.278 216.64899 222.57999 224.62099 227.112 232.77299 238.254 240.265 246.63599 252.467 254.95799 259.879 264.85999 267.35101 273.66199 279.50299 281.99399 287.17499 289.31601 295.75699 302.67801 309.009 311.5 317.55099 322.47202 328.353 331.534 337.905 343.73602 346.22702 352.05801 357.13901 362.74002 368.811 374.642 377.133 378.40402 383.32501 385.23602 390.897 395.71802 398.20901"
         y="-557.38202"
         sodipodi:role="line"
         id="tspan267"></tspan></text><text
       transform="scale(1,-1)"
       style="font-variant:normal;font-weight:normal;font-size:10px;font-family:Generic1;-inkscape-font-specification:Generic1-Regular;writing-mode:lr-tb;fill:#000000;fill-opacity:1;fill-rule:nonzero;stroke:none"
       id="text273"
       x="401.103"
       y="-557.38202"><tspan
         x="401.103"
         y="-557.38202"
         id="tspan271"></tspan></text><text
       transform="scale(1,-1)"
       style="font-variant:normal;font-weight:normal;font-size:10px;font-family:Generic1;-inkscape-font-specification:Generic1-Regular;writing-mode:lr-tb;fill:#000000;fill-opacity:1;fill-rule:nonzero;stroke:none"
       id="text277"
       x="404.40302"
       y="-557.38202"><tspan
         x="404.40302 407.13501 409.62701 411.76901 417.78101 423.703 426.19501 431.547 433.45901 439.151 444.96301 447.45499 453.88699 456.02899 462.04102 467.22299 469.36499 475.16699 481.48901 483.98102 489.61301 491.755 496.84702 500.159 504.98102 507.47299 509.48502 514.41699 519.86902 526.19098 528.68298 531.51501 537.117"
         y="-557.38202"
         sodipodi:role="line"
         id="tspan275"></tspan></text><text
       transform="scale(1,-1)"
       style="font-variant:normal;font-weight:normal;font-size:10px;font-family:Generic1;-inkscape-font-specification:Generic1-Regular;writing-mode:lr-tb;fill:#000000;fill-opacity:1;fill-rule:nonzero;stroke:none"
       id="text281"
       x="257.39301"
       y="-543.38202"><tspan
         x="257.39301 259.453 265.31299 271.02301 273.133 278.923 285.453 291.483 294.073 299.09299 306.11301 308.703 310.81299 316.47299 318.71301 324.673 330.703 333.293 338.99301 341.233 348.293 350.37302 352.43301 358.46301 361.05301 366.633 372.36301 374.603 381.02301 387.543 390.133 396.233 398.203 401.55301 408.573 411.16299 416.823 422.39301 429.41299 432.00299 438.53299 440.77301 446.96301 452.37299 457.39301 459.983 465.00299 472.02301 474.61301 480.66299 486.323 488.56299 494.633 501.16299 503.75299 508.72299 515.74298 522.04297 527.06299 529.65302 532.24298 534.83301 537.42297"
         y="-543.38202"
         sodipodi:role="line"
         id="tspan279"></tspan></text><text
       transform="scale(1,-1)"
       style="font-variant:normal;font-weight:normal;font-size:10px;font-family:Generic1;-inkscape-font-specification:Generic1-Regular;writing-mode:lr-tb;fill:#000000;fill-opacity:1;fill-rule:nonzero;stroke:none"
       id="text285"
       x="66.583"
       y="-529.38202"><tspan
         x="66.583 69.174004 71.004997 76.556 82.156998 84.297997 90.728996 96.540001 99.030998 105.142 111.943 114.434 120.745 126.566 129.05699 130.888 133.02899 135.00999 136.881 140.092 145.72299 151.534 154.02499 156.036 161.33699 166.138 168.629 174.67999 179.61099 184.532 186.67299 191.754 197.56499 200.056 205.86699 212.28799 214.42899 221.39 226.45099 228.94199 234.69299 240.30399 242.31499 248.006 254.31699 256.80801 261.729 266.69 269.181 271.32199 273.11301 276.45401 281.935 284.42599 289.60699 291.74799 298.189 305.10999 311.42099 313.91199 319.96301 324.884 330.76501 333.94601 340.31702 346.12802 348.61902 354.45001 359.53101 365.13202 371.203 377.01401 379.505 380.776 385.69702 387.608 393.26901 398.07001 400.561"
         y="-529.38202"
         sodipodi:role="line"
         id="tspan283"></tspan></text><text
       transform="scale(1,-1)"
       style="font-variant:normal;font-weight:normal;font-size:10px;font-family:Generic1;-inkscape-font-specification:Generic1-Regular;writing-mode:lr-tb;fill:#000000;fill-opacity:1;fill-rule:nonzero;stroke:none"
       id="text289"
       x="403.453"
       y="-529.38202"><tspan
         x="403.453"
         y="-529.38202"
         id="tspan287"></tspan></text><text
       transform="scale(1,-1)"
       style="font-variant:normal;font-weight:normal;font-size:10px;font-family:Generic1;-inkscape-font-specification:Generic1-Regular;writing-mode:lr-tb;fill:#000000;fill-opacity:1;fill-rule:nonzero;stroke:none"
       id="text293"
       x="406.75299"
       y="-529.38202"><tspan
         x="406.75299 409.46301 411.953 414.09299 420.103 426.00299 428.49301 433.84299 435.75299 441.44299 447.233 449.72299 456.15302 458.293 464.30301 469.483 471.62302 477.43301 483.733 486.22299 491.853 493.99301 499.08301 502.39301 507.19299 509.68301 511.69299 516.633 522.08301 528.383 530.87299 533.703 537.09302"
         y="-529.38202"
         sodipodi:role="line"
         id="tspan291"></tspan></text><text
       transform="scale(1,-1)"
       style="font-variant:normal;font-weight:normal;font-size:10px;font-family:Generic1;-inkscape-font-specification:Generic1-Regular;writing-mode:lr-tb;fill:#000000;fill-opacity:1;fill-rule:nonzero;stroke:none"
       id="text297"
       x="70.392998"
       y="-515.38202"><tspan
         x="70.392998 72.984001 75.125 80.685997 82.827003 88.767998 91.259003 93.090004 98.841003 104.452 106.463 112.154 118.585 124.516 127.007 132.198 137.789 143.53 149.951 152.442 154.27299 160.34399 162.485 168.556 170.567 176.168 178.659 184.16 186.30099 192.21201 194.703 200.18401 205.815 207.95601 214.377 216.51801 219.009 225.08 227.22101 233.28201 235.293 240.89401 243.38501 249.436 254.35701 256.36801 262.42899 268.85999 271.35098 276.832 282.46301 284.604 291.02499 293.51599 295.34698 301.11801 303.17899 308.70999 311.991 317.552 323.483 325.974 328.11499 333.29602 339.30701 344.90802 347.39902 349.54001 351.681 357.15201 364.073 370.14401 376.07501 378.56601 383.75702 389.34799 395.08902 401.51001 404.00101 405.832 407.97299 410.11401 413.39502 419.366 425.797 431.728 434.21899 440.55002 445.73102 447.87201 453.27301 459.07401 465.495 467.63602 470.12701 473.51801 475.659 481.57001 484.061 486.04199 492.31302 494.32401 500.465 506.09601 512.02698 514.51801 520.62897 527.54999 530.04102 532.53198 535.02301 537.51398"
         y="-515.38202"
         sodipodi:role="line"
         id="tspan295"></tspan></text><text
       transform="scale(1,-1)"
       style="font-variant:normal;font-weight:normal;font-size:10px;font-family:Generic1;-inkscape-font-specification:Generic1-Regular;writing-mode:lr-tb;fill:#000000;fill-opacity:1;fill-rule:nonzero;stroke:none"
       id="text301"
       x="308.74301"
       y="-501.38199"><tspan
         x="308.74301 310.80301 313.733 319.603 321.68301 323.793 329.58301 335.16299 337.75299 339.99301 346.03299 348.62299 350.68298 356.793 361.81299 367.983 370.573 376.823 379.06299 384.09299 391.11301 397.64301 400.573 403.16299 409.013 414.72299 416.83301 422.62299 429.15302 435.18301 437.77301 442.793 449.81302 452.40302 454.513 460.173 462.41299 468.37302 474.40302 476.99301 482.69299 484.93301 491.99301 494.073 496.133 502.16299 504.75299 510.33301 516.06299 518.30298 524.823 527.06299 529.65302 532.24298 534.83301 537.42297"
         y="-501.38199"
         sodipodi:role="line"
         id="tspan299"></tspan></text><text
       transform="scale(1,-1)"
       style="font-variant:normal;font-weight:normal;font-size:10px;font-family:Generic1;-inkscape-font-specification:Generic1-Regular;writing-mode:lr-tb;fill:#000000;fill-opacity:1;fill-rule:nonzero;stroke:none"
       id="text305"
       x="66.593002"
       y="-487.38199"><tspan
         x="66.593002 69.183998 71.525002 73.865997 77.347 80.898003 84.278999 90.900002 94.890999 97.582001 103.933 106.274 111.405 118.526 125.157 132.938 135.629 142.27 148.03101 150.37199 156.543 164.82401 167.515 169.54601 171.88699 174.228 181.319 187.53 192.911 200.692 203.383 209.73401 212.075 217.20601 224.327 230.95801 238.739 241.43001 247.78101 250.12201 255.433 261.54401 265.535 268.22598 273.90698 279.73801 282.07898 290.35999 293.05099 299.32199 304.573 307.26401 309.60498 314.85599 321.49701 328.65799 330.83899 333.04999 337.57098 339.552 346.02298 348.13397 355.625 358.31598 364.66699 367.008 372.13898 379.25998 387.55099 390.24197 396.383 398.724 404.80499 413.586 416.27698 418.43799 424.64899 429.76999 437.70099 440.392 446.74298 449.08398 454.215 461.336 467.86697 475.32797 478.01898 480.35999 488.151 490.84198 497.19299 499.534 504.66498 511.78598 518.31702 525.77802 528.46899 531.5 537.18103"
         y="-487.38199"
         sodipodi:role="line"
         id="tspan303"></tspan></text><text
       transform="scale(1,-1)"
       style="font-variant:normal;font-weight:normal;font-size:10px;font-family:Generic1;-inkscape-font-specification:Generic1-Regular;writing-mode:lr-tb;fill:#000000;fill-opacity:1;fill-rule:nonzero;stroke:none"
       id="text309"
       x="502.39301"
       y="-473.38199"><tspan
         x="502.39301 504.55301 510.30301 516.013 522.36298 527.87299 534.00299"
         y="-473.38199"
         sodipodi:role="line"
         id="tspan307"></tspan></text><text
       transform="scale(1,-1)"
       style="font-variant:normal;font-weight:normal;font-size:10px;font-family:Generic0;-inkscape-font-specification:Generic0-Regular;writing-mode:lr-tb;fill:#000000;fill-opacity:1;fill-rule:nonzero;stroke:none"
       id="text313"
       x="475.573"
       y="-459.38199"><tspan
         x="475.573 481.59201 484.03101 487.39001 489.92899 495.40799 497.99701 504.48599 509.505 512.02399 518.67297 525.802 528.39099"
         y="-459.38199"
         sodipodi:role="line"
         id="tspan311"></tspan></text><text
       transform="scale(1,-1)"
       style="font-variant:normal;font-weight:normal;font-size:10px;font-family:Generic0;-inkscape-font-specification:Generic0-Regular;writing-mode:lr-tb;fill:#000000;fill-opacity:1;fill-rule:nonzero;stroke:none"
       id="text317"
       x="530.97302"
       y="-459.38199"><tspan
         x="530.97302 534.86298"
         y="-459.38199"
         sodipodi:role="line"
         id="tspan315"></tspan></text><text
       transform="scale(1,-1)"
       style="font-variant:normal;font-weight:normal;font-size:10px;font-family:Generic1;-inkscape-font-specification:Generic1-Regular;writing-mode:lr-tb;fill:#000000;fill-opacity:1;fill-rule:nonzero;stroke:none"
       id="text321"
       x="410.97299"
       y="-445.38199"><tspan
         x="410.97299 415.39301 417.983 420.05301 425.233 427.823 434.24301 440.28299 444.013 449.71301 452.30301 457.58301 463.513 469.21301 471.453 477.97299 480.56299 486.673 492.36301 498.37302 500.96301 506.19299 512.15302 518.18298 520.77301 523.013 528.703 534.99298"
         y="-445.38199"
         sodipodi:role="line"
         id="tspan319"></tspan></text><text
       transform="scale(1,-1)"
       style="font-variant:normal;font-weight:normal;font-size:10px;font-family:Generic1;-inkscape-font-specification:Generic1-Regular;writing-mode:lr-tb;fill:#000000;fill-opacity:1;fill-rule:nonzero;stroke:none"
       id="text325"
       x="66.593002"
       y="-431.38199"><tspan
         x="66.593002 69.183998 71.525002 73.596001 79.737 81.718002 84.408997 86.440002 92.640999 94.851997 100.233 106.394 112.175 114.866 121.067 123.278 128.379 132.2 134.541 140.722 146.173 148.864 155.495 157.836 163.66699 166.008 171.80901 178.02 183.791 186.48199 193.11299 195.45399 201.66501 207.04601 209.38701 215.51801 221.289 223.98 230.61101 232.952 238.433 243.43401 248.19501 250.886 252.91701 255.258 257.46899 262.79001 265.48099 270.60199 275.53299 278.224 284.85498 287.19598 293.40698 298.78799 301.129 306.89999 309.591 314.71201 320.19299 322.88397 329.51498 331.85599 337.61697 339.87799 345.98898 348.32999 354.60098 357.29199 363.14297 366.61398 369.30499 374.40598 378.22699 380.56799 386.48898 389.17999 391.39099 396.90198 401.66299 404.35397 410.55499 412.76599 417.89697 423.01797 427.94897 430.63998 437.271 442.53198 447.733 453.534 460.155 462.13599 464.827 470.67798 474.14899 476.84 481.94098 485.76199 488.103 494.02399 496.715 503.34598 505.68698 511.89798 517.27899 519.62 525.39099 528.08203 531.11298 537.25403"
         y="-431.38199"
         sodipodi:role="line"
         id="tspan323"></tspan></text><text
       transform="scale(1,-1)"
       style="font-variant:normal;font-weight:normal;font-size:10px;font-family:Generic1;-inkscape-font-specification:Generic1-Regular;writing-mode:lr-tb;fill:#000000;fill-opacity:1;fill-rule:nonzero;stroke:none"
       id="text329"
       x="377.603"
       y="-417.38199"><tspan
         x="377.603 379.29199 384.672 387.01199 393.56299 399.72501 405.005 407.69501 410.035 412.245 417.92499 420.61499 425.73499 431.01498 433.70499 440.33499 442.67499 448.88901 454.26901 456.60901 462.616 469.23599 471.92599 477.75601 480.09601 485.38599 488.897 494.017 496.707 498.91699 504.561 509.841 512.53101 514.87103 520.90399 526.70398 529.39398 532.08398 534.77399 537.46399"
         y="-417.38199"
         sodipodi:role="line"
         id="tspan327"></tspan></text><text
       transform="scale(1,-1)"
       style="font-variant:normal;font-weight:normal;font-size:10px;font-family:Generic1;-inkscape-font-specification:Generic1-Regular;writing-mode:lr-tb;fill:#000000;fill-opacity:1;fill-rule:nonzero;stroke:none"
       id="text333"
       x="174.61301"
       y="-403.38199"><tspan
         x="174.61301 177.203 179.263 181.50301 183.61301 189.19299 191.783 196.80299 201.983 204.573 206.683 212.343 214.933 219.953 225.683 228.27299 234.64301 236.75301 242.993 248.72301 254.75301 257.34302 262.37302 269.39301 271.983 274.22299 280.75299 282.99301 288.00299 291.75299 298.27301 300.86301 306.59299 308.83301 314.02301 317.43301 322.453 325.043 327.15298 332.69299 337.87299 340.46301 346.21301 349.93301 352.52301 357.52301 361.24301 363.483 369.65298 372.24301 374.353 379.763 384.78299 387.37299 393.46301 395.573 400.603 405.62299 410.80301 413.39301 419.923 425.073 430.173 435.87302 442.39301 444.633 447.22299 452.97299 456.69299 459.28302 464.28302 468.00302 470.24301 476.41299 479.00302 485.53302 487.77301 493.883 499.16299 501.40302 507.323 513.02301 515.61298 517.85297 519.81299 525.85297 528.44299 531.37299 537.073"
         y="-403.38199"
         sodipodi:role="line"
         id="tspan331"></tspan></text><text
       transform="scale(1,-1)"
       style="font-variant:normal;font-weight:normal;font-size:10px;font-family:Generic0;-inkscape-font-specification:Generic0-Regular;writing-mode:lr-tb;fill:#000000;fill-opacity:1;fill-rule:nonzero;stroke:none"
       id="text337"
       x="335.53299"
       y="-375.38199"><tspan
         x="335.53299 338.453 345.06299 350.66299 355.853 358.483 364.02301 370.49301 376.47299 379.06299 385.08301 387.62299 392.72299 397.80301 402.77301 408.75299 411.34299 417.93301 422.81299 427.84299 433.43301 439.923 445.00299 447.59299 453.673 459.68301 466.27301 472.16299 477.763 480.353 486.36301 488.90298 494.383 500.043 502.673 509.14301 515.12299 517.71301 523.90302 526.53302 531.50299 534.11298"
         y="-375.38199"
         sodipodi:role="line"
         id="tspan335"></tspan></text><text
       transform="scale(1,-1)"
       style="font-variant:normal;font-weight:normal;font-size:6px;font-family:Generic3;-inkscape-font-specification:Generic3-Regular;writing-mode:lr-tb;fill:#000000;fill-opacity:1;fill-rule:nonzero;stroke:none"
       id="text341"
       x="52.7244"
       y="-28.0375"><tspan
         x="52.7244 55.885799 57.4272 60.528599 63.672001 66.431396 68.056801 71.260201 72.855598 76.107002 77.648399 80.755798"
         y="-28.0375"
         sodipodi:role="line"
         id="tspan339"></tspan></text><text
       transform="scale(1,-1)"
       style="font-variant:normal;font-weight:normal;font-size:9.5px;font-family:Generic2;-inkscape-font-specification:Generic2-Regular;writing-mode:lr-tb;fill:#000000;fill-opacity:1;fill-rule:nonzero;stroke:none"
       id="text345"
       x="444.41901"
       y="-25.180599"><tspan
         x="444.41901 446.87949 449.34 451.80051 454.26099 460.58801 464.18851 469.72699 475.29401 477.94449 483.69199 486.0575 491.64349 495.04449 500.61151 503.034 505.68451 510.65302 516.90399 520.46649 523.117 528.57001 534.59302 536.90149"
         y="-25.180599"
         sodipodi:role="line"
         id="tspan343"></tspan></text><text
       transform="scale(1,-1)"
       style="font-variant:normal;font-weight:normal;font-size:9.5px;font-family:Generic2;-inkscape-font-specification:Generic2-Regular;writing-mode:lr-tb;fill:#000000;fill-opacity:1;fill-rule:nonzero;stroke:none"
       id="text349"
       x="235.097"
       y="-14.1806"><tspan
         x="235.097 237.5575"
         y="-14.1806"
         sodipodi:role="line"
         id="tspan347"></tspan></text><text
       transform="scale(1,-1)"
       style="font-variant:normal;font-weight:normal;font-size:9px;font-family:Generic2;-inkscape-font-specification:Generic2-Regular;writing-mode:lr-tb;fill:#000000;fill-opacity:1;fill-rule:nonzero;stroke:none"
       id="text353"
       x="240.019"
       y="-14.1806"><tspan
         x="240.019 244.2715 246.44501 251.6875 259.33301 266.5105 271.50101 273.64749 276.685 281.36951 285.12701 287.30051 291.97601 297.0835 299.25699 301.4035"
         y="-14.1806"
         sodipodi:role="line"
         id="tspan351"></tspan></text><text
       transform="scale(1,-1)"
       style="font-variant:normal;font-weight:normal;font-size:9.5px;font-family:Generic2;-inkscape-font-specification:Generic2-Regular;writing-mode:lr-tb;fill:#000000;fill-opacity:1;fill-rule:nonzero;stroke:none"
       id="text357"
       x="303.70999"
       y="-14.1806"><tspan
         x="303.70999"
         y="-14.1806"
         id="tspan355"></tspan></text><text
       transform="scale(1,-1)"
       style="font-variant:normal;font-weight:normal;font-size:9.5px;font-family:Generic2;-inkscape-font-specification:Generic2-Regular;writing-mode:lr-tb;fill:#000000;fill-opacity:1;fill-rule:nonzero;stroke:none"
       id="text361"
       x="306.362"
       y="-14.1806"><tspan
         x="306.362"
         y="-14.1806"
         id="tspan359"></tspan></text><text
       transform="scale(1,-1)"
       style="font-variant:normal;font-weight:normal;font-size:9.5px;font-family:Generic2;-inkscape-font-specification:Generic2-Regular;writing-mode:lr-tb;fill:#000000;fill-opacity:1;fill-rule:nonzero;stroke:none"
       id="text365"
       x="310.827"
       y="-14.1806"><tspan
         x="310.827"
         y="-14.1806"
         id="tspan363"></tspan></text><text
       transform="scale(1,-1)"
       style="font-variant:normal;font-weight:normal;font-size:9.5px;font-family:Generic2;-inkscape-font-specification:Generic2-Regular;writing-mode:lr-tb;fill:#000000;fill-opacity:1;fill-rule:nonzero;stroke:none"
       id="text369"
       x="313.28751"
       y="-14.1806"><tspan
         x="313.28751 317.70215 321.31879 324.93546 329.84409 334.81924 340.4689"
         y="-14.1806"
         sodipodi:role="line"
         id="tspan367"></tspan></text><text
       transform="scale(1,-1)"
       style="font-variant:normal;font-weight:normal;font-size:9.5px;font-family:Generic2;-inkscape-font-specification:Generic2-Regular;writing-mode:lr-tb;fill:#000000;fill-opacity:1;fill-rule:nonzero;stroke:none"
       id="text373"
       x="345.59698"
       y="-14.1806"><tspan
         x="345.59698 348.2475 353.70999 356.13251 362.12701 364.43549 370.8385 373.48901 379.48349 384.56601 390.133 392.78351 394.978 398.32199 403.88901"
         y="-14.1806"
         sodipodi:role="line"
         id="tspan371"></tspan></text><text
       transform="scale(1,-1)"
       style="font-variant:normal;font-weight:normal;font-size:9.5px;font-family:Generic2;-inkscape-font-specification:Generic2-Regular;writing-mode:lr-tb;fill:#000000;fill-opacity:1;fill-rule:nonzero;stroke:none"
       id="text377"
       x="406.3685"
       y="-14.1806"><tspan
         x="406.3685 411.01401 416.06799 420.96051"
         y="-14.1806"
         sodipodi:role="line"
         id="tspan375"></tspan></text><text
       transform="scale(1,-1)"
       style="font-variant:normal;font-weight:normal;font-size:9.5px;font-family:Generic2;-inkscape-font-specification:Generic2-Regular;writing-mode:lr-tb;fill:#000000;fill-opacity:1;fill-rule:nonzero;stroke:none"
       id="text381"
       x="426.08099"
       y="-14.1806"><tspan
         x="426.08099 428.73151 433.70001 436.1225"
         y="-14.1806"
         sodipodi:role="line"
         id="tspan379"></tspan></text><text
       transform="scale(1,-1)"
       style="font-variant:normal;font-weight:normal;font-size:9.5px;font-family:Generic2;-inkscape-font-specification:Generic2-Regular;writing-mode:lr-tb;fill:#000000;fill-opacity:1;fill-rule:nonzero;stroke:none"
       id="text385"
       x="442.53601"
       y="-14.1806"><tspan
         x="442.53601 445.18649 449.65149"
         y="-14.1806"
         sodipodi:role="line"
         id="tspan383"></tspan></text><text
       transform="scale(1,-1)"
       style="font-variant:normal;font-weight:normal;font-size:9.5px;font-family:Generic2;-inkscape-font-specification:Generic2-Regular;writing-mode:lr-tb;fill:#000000;fill-opacity:1;fill-rule:nonzero;stroke:none"
       id="text389"
       x="452.30209"
       y="-14.1806"><tspan
         x="452.30209"
         y="-14.1806"
         id="tspan387"></tspan></text><text
       transform="scale(1,-1)"
       style="font-variant:normal;font-weight:normal;font-size:9.5px;font-family:Generic2;-inkscape-font-specification:Generic2-Regular;writing-mode:lr-tb;fill:#000000;fill-opacity:1;fill-rule:nonzero;stroke:none"
       id="text393"
       x="455.173"
       y="-14.1806"><tspan
         x="455.173"
         y="-14.1806"
         id="tspan391"></tspan></text><text
       transform="scale(1,-1)"
       style="font-variant:normal;font-weight:normal;font-size:9.5px;font-family:Generic2;-inkscape-font-specification:Generic2-Regular;writing-mode:lr-tb;fill:#000000;fill-opacity:1;fill-rule:nonzero;stroke:none"
       id="text397"
       x="460.34399"
       y="-14.1806"><tspan
         x="460.34399 462.99451 468.89401 474.9455 477.36801"
         y="-14.1806"
         sodipodi:role="line"
         id="tspan395"></tspan></text><text
       transform="scale(1,-1)"
       style="font-variant:normal;font-weight:normal;font-size:9.5px;font-family:Generic2;-inkscape-font-specification:Generic2-Regular;writing-mode:lr-tb;fill:#000000;fill-opacity:1;fill-rule:nonzero;stroke:none"
       id="text401"
       x="482.34909"
       y="-14.1806"><tspan
         x="482.34909 489.2366"
         y="-14.1806"
         sodipodi:role="line"
         id="tspan399"></tspan></text><text
       transform="scale(1,-1)"
       style="font-variant:normal;font-weight:normal;font-size:9.5px;font-family:Generic2;-inkscape-font-specification:Generic2-Regular;writing-mode:lr-tb;fill:#000000;fill-opacity:1;fill-rule:nonzero;stroke:none"
       id="text405"
       x="492.29001"
       y="-11.0953"><tspan
         x="492.29001"
         y="-11.0953"
         id="tspan403"></tspan></text><text
       transform="scale(1,-1)"
       style="font-variant:normal;font-weight:normal;font-size:9.5px;font-family:Generic2;-inkscape-font-specification:Generic2-Regular;writing-mode:lr-tb;fill:#000000;fill-opacity:1;fill-rule:nonzero;stroke:none"
       id="text409"
       x="494.94049"
       y="-12.1783"><tspan
         x="494.94049"
         y="-12.1783"
         id="tspan407"></tspan></text><text
       transform="scale(1,-1)"
       style="font-variant:normal;font-weight:normal;font-size:9.5px;font-family:Generic2;-inkscape-font-specification:Generic2-Regular;writing-mode:lr-tb;fill:#000000;fill-opacity:1;fill-rule:nonzero;stroke:none"
       id="text413"
       x="499.4245"
       y="-14.1828"><tspan
         x="499.4245 504.3075"
         y="-14.1828"
         sodipodi:role="line"
         id="tspan411"></tspan></text><text
       transform="scale(1,-1)"
       style="font-variant:normal;font-weight:normal;font-size:9.5px;font-family:Generic2;-inkscape-font-specification:Generic2-Regular;writing-mode:lr-tb;fill:#000000;fill-opacity:1;fill-rule:nonzero;stroke:none"
       id="text417"
       x="509.28549"
       y="-14.1828"><tspan
         x="509.28549"
         y="-14.1828"
         id="tspan415"></tspan></text><text
       transform="scale(1,-1)"
       style="font-variant:normal;font-weight:normal;font-size:9.5px;font-family:Generic2;-inkscape-font-specification:Generic2-Regular;writing-mode:lr-tb;fill:#000000;fill-opacity:1;fill-rule:nonzero;stroke:none"
       id="text421"
       x="514.31097"
       y="-14.1828"><tspan
         x="514.31097"
         y="-14.1828"
         id="tspan419"></tspan></text><text
       transform="scale(1,-1)"
       style="font-variant:normal;font-weight:normal;font-size:9.5px;font-family:Generic2;-inkscape-font-specification:Generic2-Regular;writing-mode:lr-tb;fill:#000000;fill-opacity:1;fill-rule:nonzero;stroke:none"
       id="text425"
       x="519.46002"
       y="-14.1828"><tspan
         x="519.46002 522.11047 524.53302 526.95551"
         y="-14.1828"
         sodipodi:role="line"
         id="tspan423"></tspan></text><text
       transform="scale(1,-1)"
       style="font-variant:normal;font-weight:normal;font-size:9.5px;font-family:Generic2;-inkscape-font-specification:Generic2-Regular;writing-mode:lr-tb;fill:#000000;fill-opacity:1;fill-rule:nonzero;stroke:none"
       id="text429"
       x="532.31348"
       y="-14.1828"><tspan
         x="532.31348"
         y="-14.1828"
         id="tspan427"></tspan></text><text
       transform="scale(1,-1)"
       style="font-variant:normal;font-weight:normal;font-size:9.5px;font-family:Generic2;-inkscape-font-specification:Generic2-Regular;writing-mode:lr-tb;fill:#000000;fill-opacity:1;fill-rule:nonzero;stroke:none"
       id="text433"
       x="537.2915"
       y="-14.1828"><tspan
         x="537.2915"
         y="-14.1828"
         id="tspan431"></tspan></text><path
       d="m 200.05214,741.99013 c 4.47343,-4.41468 9.80539,-7.8669 15.657,-10.15332 6.34865,-2.44457 13.09494,-3.67363 19.89545,-3.63748 h 0.32082 c 6.63784,-0.009 13.21694,1.22002 19.3984,3.63748 11.78002,4.55024 21.12904,13.79533 25.81485,25.51661 2.50331,6.26731 3.76399,12.95938 3.70073,19.71019 0,14.69452 -4.15711,26.96256 -12.02404,35.53889 -3.6691,3.98993 -8.15157,7.14392 -13.14915,9.24508 -5.20092,2.14634 -10.77689,3.23081 -16.40708,3.19466 -6.9677,-0.0813 -13.86311,-1.44144 -20.34732,-4.00801 l 6.29443,-19.58819 c 3.14948,1.24262 6.50229,1.90234 9.88673,1.95204 5.84256,0.14912 11.43661,-2.35871 15.21869,-6.81407 4.008,-4.64965 6.06397,-11.37335 6.06397,-19.43003 0,-15.45818 -10.40636,-26.71856 -24.77103,-26.71856 h -0.42475 c -6.65592,0.005 -13.01361,2.72472 -17.61355,7.53253 -4.70388,5.24611 -7.2343,12.08729 -7.06711,19.13632 v 45.97237 h -24.45022 v -45.92266 c -0.0633,-6.75081 1.19743,-13.44739 3.70075,-19.71923 2.34064,-5.8019 5.84708,-11.05704 10.30243,-15.44462"
       style="fill:#271446;fill-opacity:1;fill-rule:nonzero;stroke:none;stroke-width:4.51861"
       id="path439" /><path
       d="m 388.44215,729.16179 c 5.25514,0.0904 10.44251,1.17032 15.30002,3.18111 4.97951,2.09663 9.4439,5.25514 13.09041,9.24508 7.84432,8.54921 12.02404,20.8308 12.02404,35.52533 0.0542,6.75081 -1.19742,13.44739 -3.68718,19.71923 -4.67677,11.7258 -13.99416,20.98895 -25.74253,25.60246 -6.15437,2.40842 -12.70185,3.642 -19.30805,3.63296 h -0.75008 c -6.68303,0.005 -13.31184,-1.22906 -19.54753,-3.63296 -5.86516,-2.27738 -11.21519,-5.72509 -15.71121,-10.13073 -4.47795,-4.37402 -7.99795,-9.63369 -10.33858,-15.44462 -2.52139,-6.2628 -3.79111,-12.95486 -3.74142,-19.70567 V 731.2042 h 24.46377 v 45.92267 c -0.16719,7.05355 2.38132,13.90377 7.12133,19.1318 4.64514,4.81684 11.04802,7.54157 17.74009,7.5506 h 0.40214 c 6.68756,0.0859 13.10849,-2.6479 17.67683,-7.53704 4.618,-5.28678 7.08968,-12.1144 6.91799,-19.13181 0,-8.01602 -2.09664,-14.77586 -6.064,-19.42551 -3.77303,-4.4418 -9.3535,-6.93607 -15.17801,-6.78696 -3.35732,0.0362 -6.6785,0.69587 -9.79183,1.94752 l -6.28087,-19.70567 c 6.47518,-2.57109 13.37058,-3.92667 20.33376,-4.00801 z"
       style="fill:#271446;fill-opacity:1;fill-rule:nonzero;stroke:none;stroke-width:4.51861"
       id="path441" /><path
       d="m 97.467884,798.10679 c 5.905826,3.19465 14.482156,7.06711 24.048056,7.06711 3.36637,0.0542 6.70562,-0.61454 9.79635,-1.94753 2.85577,-1.28328 5.3636,-3.23532 7.3066,-5.69345 3.86341,-4.83491 5.90583,-11.90654 5.90583,-20.42865 V 751.55604 H 92.29859 v -20.32021 h 87.31316 v 20.33376 h -10.77238 v 27.44606 c 0.11749,6.86377 -0.73653,13.70947 -2.53494,20.33375 -1.46855,5.33649 -4.11194,10.27533 -7.73586,14.45505 -3.60134,3.94023 -8.11995,6.93155 -13.14917,8.71188 -6.25376,2.10568 -12.82834,3.11333 -19.42551,2.98229 -12.76057,-0.0633 -25.28164,-3.45222 -36.329651,-9.83702 z"
       style="fill:#271446;fill-opacity:1;fill-rule:nonzero;stroke:none;stroke-width:4.51861"
       id="path443" /><path
       d="m 295.38132,772.50433 h 24.46377 v 33.40158 c 0,2.12375 -0.0813,5.4133 -0.42926,9.01915 -0.23498,2.72473 -0.68232,5.42686 -1.333,8.0838 h -24.35984 c 1.13416,-5.63019 1.68996,-11.35979 1.65833,-17.10295 z"
       style="fill:#271446;fill-opacity:1;fill-rule:nonzero;stroke:none;stroke-width:4.51861"
       id="path445" /><path
       d="m 53.8583,742.77637 c 0.01356,-7.31111 5.955532,-13.2305 13.266647,-13.21242 h 0.01356 c 3.501925,0.005 6.859254,1.38721 9.353529,3.84534 5.14218,5.16929 5.124107,13.52421 -0.04519,18.67091 -2.47168,2.45812 -5.819972,3.84082 -9.308341,3.84082 -7.293041,0.0316 -13.235017,-5.85161 -13.280203,-13.14465"
       style="fill:#40ad6f;fill-opacity:1;fill-rule:nonzero;stroke:none;stroke-width:4.51861"
       id="path447" /><path
       d="m 76.491581,808.13811 c -2.498794,2.4536 -5.851605,3.8363 -9.35353,3.85889 -7.216224,0.0813 -13.131089,-5.70249 -13.212424,-12.91871 0,-0.0452 0,-0.0859 0,-0.13104 v -0.30727 c 0.04519,-7.22526 5.910346,-13.06331 13.131089,-13.06783 h 1.057356 c 7.012887,0.46542 12.44426,6.33058 12.371961,13.36154 -0.02711,3.48385 -1.473067,6.80503 -3.994452,9.20442"
       style="fill:#40ad6f;fill-opacity:1;fill-rule:nonzero;stroke:none;stroke-width:4.51861"
       id="path449" /><path
       d="m 75.966968,706.18916 c 9.154709,0 13.06331,-3.99897 13.06331,-13.38865 v -14.50474 h -4.374017 v 14.50474 c 0,6.6017 -2.647907,9.66984 -8.784183,9.66984 h -6.832143 v -17.84852 c 0,-4.50958 -2.417458,-6.6017 -5.951013,-6.6017 -1.6267,0 -3.858895,0.32534 -5.160256,0.79076 l 0.605495,3.43866 c 0.930834,-0.32534 1.906854,-0.5106 3.208215,-0.5106 2.137303,0 2.973247,1.25617 2.973247,4.08934 v 16.64206 H 60.71665 v 3.71881 z"
       style="fill:#271446;fill-opacity:1;fill-rule:nonzero;stroke:none;stroke-width:4.51861"
       id="path451" /><path
       d="m 107.09976,678.29577 h 4.3695 v 27.88888 h -4.3695 z"
       style="fill:#271446;fill-opacity:1;fill-rule:nonzero;stroke:none;stroke-width:4.51861"
       id="path453" /><path
       d="m 149.28959,706.18916 h 4.3695 v -9.10952 c 0,-12.55271 -4.88462,-19.94516 -25.1506,-20.82629 l -0.32534,3.57875 c 2.83769,0.18526 5.35004,0.5106 7.48735,0.88113 l -6.55651,25.47593 h 4.50957 l 6.22665,-24.45021 c 7.20719,2.32257 9.43938,6.78696 9.43938,15.34069 z"
       style="fill:#271446;fill-opacity:1;fill-rule:nonzero;stroke:none;stroke-width:4.51861"
       id="path455" /><path
       d="m 171.35172,706.18916 h 25.61602 v -16.13144 c 0,-9.06434 -3.95379,-12.08729 -9.81443,-12.08729 -2.0876,0 -3.80919,0.23497 -5.62115,0.79075 l 0.5106,3.62845 c 1.44144,-0.42023 3.11784,-0.70038 4.55928,-0.70038 4.22942,0 6.13628,2.187 6.13628,8.7887 v 11.9924 h -21.3866 z m 4.55476,-11.76194 v -24.21977 h -4.22942 v 23.66398 z"
       style="fill:#271446;fill-opacity:1;fill-rule:nonzero;stroke:none;stroke-width:4.51861"
       id="path457" /><path
       d="m 241.80819,706.18916 h 4.3695 v -12.64307 c 0,-9.76473 -6.0459,-15.80611 -15.89648,-15.80611 -9.85509,0 -15.901,6.04138 -15.901,15.80611 v 12.64307 h 4.3695 v -12.73797 c 0,-7.34274 4.46439,-11.99239 11.5315,-11.99239 7.06259,0 11.52698,4.64965 11.52698,11.99239 z m -9.34449,0 v -15.99137 l -4.3695,-0.93083 v 16.9222 z"
       style="fill:#271446;fill-opacity:1;fill-rule:nonzero;stroke:none;stroke-width:4.51861"
       id="path459" /><path
       d="m 263.59288,706.18916 h 11.99238 c 9.11407,0 13.29377,-4.36949 13.29377,-13.94443 v -13.94896 h -4.3695 v 13.94896 c 0,7.11229 -2.74279,10.22562 -8.92427,10.22562 h -11.99238 z m 0.32535,-13.0136 4.36948,0.60097 v -15.48076 h -4.36948 z"
       style="fill:#271446;fill-opacity:1;fill-rule:nonzero;stroke:none;stroke-width:4.51861"
       id="path461" /><path
       d="m 346.48683,706.18916 c 9.15471,0 13.0633,-3.99897 13.0633,-13.38865 v -14.50474 h -4.37401 v 14.50474 c 0,6.6017 -2.6479,9.66984 -8.78417,9.66984 h -6.83216 v -17.84852 c 0,-4.50958 -2.41744,-6.6017 -5.95101,-6.6017 -1.6267,0 -3.8589,0.32534 -5.16025,0.79076 l 0.60549,3.43866 c 0.93084,-0.32534 1.90686,-0.5106 3.20821,-0.5106 2.13731,0 2.97326,1.25617 2.97326,4.08934 v 16.64206 h -3.99899 v 3.71881 z"
       style="fill:#271446;fill-opacity:1;fill-rule:nonzero;stroke:none;stroke-width:4.51861"
       id="path463" /><path
       d="m 376.44976,706.18465 v -16.50198 l 4.3695,0.74557 v 15.75641 z"
       style="fill:#271446;fill-opacity:1;fill-rule:nonzero;stroke:none;stroke-width:4.51861"
       id="path465" /><path
       d="m 420.78186,682.01459 h 4.13906 v -3.71882 h -27.33761 v 3.71882 h 18.82905 v 11.11126 c 0,5.85613 -2.55752,9.90029 -8.50855,9.90029 -3.43866,0 -6.4616,-1.1161 -9.38966,-2.69762 l -1.44144,3.2534 c 3.67361,2.14183 7.53253,3.16303 11.48179,3.16303 8.7435,0 12.22736,-5.11507 12.22736,-13.34346 z"
       style="fill:#271446;fill-opacity:1;fill-rule:nonzero;stroke:none;stroke-width:4.51861"
       id="path467" /><text
       transform="scale(1,-1)"
       style="font-variant:normal;font-weight:normal;font-size:10px;font-family:Generic0;-inkscape-font-specification:Generic0-Regular;writing-mode:lr-tb;fill:#ffffff;fill-opacity:1;fill-rule:nonzero;stroke:none"
       id="text661"
       x="504.87601"
       y="-346.89499"><tspan
         x="504.87601 510.47202 515.54797 518.17401 523.83002 529.50598"
         y="-346.89499"
         sodipodi:role="line"
         id="tspan659"></tspan></text><text
       transform="scale(1,-1)"
       style="font-variant:normal;font-weight:normal;font-size:10px;font-family:Generic0;-inkscape-font-specification:Generic0-Regular;writing-mode:lr-tb;fill:#ffffff;fill-opacity:1;fill-rule:nonzero;stroke:none"
       id="text665"
       x="197.45599"
       y="-346.89499"><tspan
         x="197.45599 202.936 208.59599 211.226 217.696"
         y="-346.89499"
         sodipodi:role="line"
         id="tspan663"></tspan></text><text
       transform="scale(1,-1)"
       style="font-variant:normal;font-weight:normal;font-size:10px;font-family:Generic1;-inkscape-font-specification:Generic1-Regular;writing-mode:lr-tb;fill:#000000;fill-opacity:1;fill-rule:nonzero;stroke:none"
       id="text669"
       x="308.98599"
       y="-315.715"><tspan
         x="308.98599 311.57599 317.82599 323.75601 329.45599 332.04599 336.966 342.246 344.48599 349.896 355.92599 358.51599 363.56601 368.746 374.53601 381.06601 387.04599 394.06601 396.65601 402.90601 405.146 407.20599 413.116 419.63599 422.22598 428.32599 430.436 436.12601 442.13599 444.37601 447.76599 450.35599 456.44601 458.51599 463.54599 470.09601 475.94601 482.466 484.70599 487.29599 493.056 498.63599 500.746 507.26599 509.85599 515.836 522.896 525.00598 529.896"
         y="-315.715"
         sodipodi:role="line"
         id="tspan667"></tspan></text><text
       transform="scale(1,-1)"
       style="font-variant:normal;font-weight:normal;font-size:10px;font-family:Generic1;-inkscape-font-specification:Generic1-Regular;writing-mode:lr-tb;fill:#000000;fill-opacity:1;fill-rule:nonzero;stroke:none"
       id="text673"
       x="173.386"
       y="-315.715"><tspan
         x="173.386 179.483 181.55 187.657 193.394 199.121 201.70801 203.815 210.332 212.439"
         y="-315.715"
         sodipodi:role="line"
         id="tspan671"></tspan></text><text
       transform="scale(1,-1)"
       style="font-variant:normal;font-weight:normal;font-size:10px;font-family:Generic1;-inkscape-font-specification:Generic1-Regular;writing-mode:lr-tb;fill:#000000;fill-opacity:1;fill-rule:nonzero;stroke:none"
       id="text677"
       x="215.045"
       y="-315.715"><tspan
         x="215.045 218.545"
         y="-315.715"
         sodipodi:role="line"
         id="tspan675"></tspan></text><text
       transform="scale(1,-1)"
       style="font-variant:normal;font-weight:normal;font-size:10px;font-family:Generic1;-inkscape-font-specification:Generic1-Regular;writing-mode:lr-tb;fill:#000000;fill-opacity:1;fill-rule:nonzero;stroke:none"
       id="text681"
       x="230.146"
       y="-284.535"><tspan
         x="230.146 232.73599 234.976 236.856 243.386 245.62601 251.62601 257.03601 259.276 265.806 268.04599 270.63602 276.47601 282.186 284.29599 290.086 296.616 302.646 305.23599 310.51599 312.75601 317.866 319.97601 325.67599 328.26599 332.896 337.91599 343.81601 350.336 352.92599 358.10599 363.44601 369.03601 374.73599 377.32599 383.17599 388.936 394.51599 396.75601 402.78601 405.37601 411.806 416.92599 419.086 424.936 431.45599 434.04599 440.146 442.216 447.246 453.79599 459.646 466.116 472.146 474.73599 479.75601 484.936 487.526 493.67599 498.70599 504.40601 510.51599 513.10602 518.38599 524.44598 530.47601"
         y="-284.535"
         sodipodi:role="line"
         id="tspan679"></tspan></text><text
       transform="scale(1,-1)"
       style="font-variant:normal;font-weight:normal;font-size:10px;font-family:Generic1;-inkscape-font-specification:Generic1-Regular;writing-mode:lr-tb;fill:#000000;fill-opacity:1;fill-rule:nonzero;stroke:none"
       id="text685"
       x="193.386"
       y="-284.535"><tspan
         x="193.386 199.483 201.59 208.10699 210.214"
         y="-284.535"
         sodipodi:role="line"
         id="tspan683"></tspan></text><text
       transform="scale(1,-1)"
       style="font-variant:normal;font-weight:normal;font-size:10px;font-family:Generic1;-inkscape-font-specification:Generic1-Regular;writing-mode:lr-tb;fill:#000000;fill-opacity:1;fill-rule:nonzero;stroke:none"
       id="text689"
       x="212.806"
       y="-284.535"><tspan
         x="212.806 217.886"
         y="-284.535"
         sodipodi:role="line"
         id="tspan687"></tspan></text><text
       transform="scale(1,-1)"
       style="font-variant:normal;font-weight:normal;font-size:10px;font-family:Generic1;-inkscape-font-specification:Generic1-Regular;writing-mode:lr-tb;fill:#000000;fill-opacity:1;fill-rule:nonzero;stroke:none"
       id="text693"
       x="430.746"
       y="-253.355"><tspan
         x="430.746 436.026 438.26599 443.37601 445.48599 451.186 453.776 458.746 465.76599 472.23599 478.26599 480.85599 487.20599 492.966 498.54599 500.78601 506.81601 509.40601 515.836 520.95599 523.11603 528.966"
         y="-253.355"
         sodipodi:role="line"
         id="tspan691"></tspan></text><text
       transform="scale(1,-1)"
       style="font-variant:normal;font-weight:normal;font-size:10px;font-family:Generic1;-inkscape-font-specification:Generic1-Regular;writing-mode:lr-tb;fill:#000000;fill-opacity:1;fill-rule:nonzero;stroke:none"
       id="text697"
       x="180.67599"
       y="-253.355"><tspan
         x="180.67599 186.77299 188.88 195.397 197.504"
         y="-253.355"
         sodipodi:role="line"
         id="tspan695"></tspan></text><text
       transform="scale(1,-1)"
       style="font-variant:normal;font-weight:normal;font-size:10px;font-family:Generic1;-inkscape-font-specification:Generic1-Regular;writing-mode:lr-tb;fill:#000000;fill-opacity:1;fill-rule:nonzero;stroke:none"
       id="text701"
       x="200.09599"
       y="-253.355"><tspan
         x="200.09599 205.086"
         y="-253.355"
         sodipodi:role="line"
         id="tspan699"></tspan></text><text
       transform="scale(1,-1)"
       style="font-variant:normal;font-weight:normal;font-size:10px;font-family:Generic1;-inkscape-font-specification:Generic1-Regular;writing-mode:lr-tb;fill:#000000;fill-opacity:1;fill-rule:nonzero;stroke:none"
       id="text705"
       x="210.886"
       y="-253.355"><tspan
         x="210.886 213.476 218.496"
         y="-253.355"
         sodipodi:role="line"
         id="tspan703"></tspan></text><text
       transform="scale(1,-1)"
       style="font-variant:normal;font-weight:normal;font-size:10px;font-family:Generic1;-inkscape-font-specification:Generic1-Regular;writing-mode:lr-tb;fill:#000000;fill-opacity:1;fill-rule:nonzero;stroke:none"
       id="text709"
       x="294.246"
       y="-222.175"><tspan
         x="294.246 296.836 303.06601 309.59601 315.70599 321.716 327.37601 333.40601 335.996 338.23599 344.276 346.866 352.966 355.04599 356.92599 363.29599 365.306 371.03601 373.62601 379.72601 381.836 388.35599 390.59601 395.616 402.63599 409.16599 411.75601 418.23599 421.586 427.69598 433.806 439.836 442.42599 444.53598 450.32599 453.73599 458.75598 461.34601 463.45599 465.69598 469.086 471.23599 478.25598 480.84601 487.20599 492.966 498.54599 500.78598 506.81601 509.40601 515.836 520.95599 523.11597 528.966"
         y="-222.175"
         sodipodi:role="line"
         id="tspan707"></tspan></text><text
       transform="scale(1,-1)"
       style="font-variant:normal;font-weight:normal;font-size:10px;font-family:Generic1;-inkscape-font-specification:Generic1-Regular;writing-mode:lr-tb;fill:#000000;fill-opacity:1;fill-rule:nonzero;stroke:none"
       id="text713"
       x="178.06599"
       y="-222.175"><tspan
         x="178.06599 184.16299 186.27 192.787 194.894"
         y="-222.175"
         sodipodi:role="line"
         id="tspan711"></tspan></text><text
       transform="scale(1,-1)"
       style="font-variant:normal;font-weight:normal;font-size:10px;font-family:Generic1;-inkscape-font-specification:Generic1-Regular;writing-mode:lr-tb;fill:#000000;fill-opacity:1;fill-rule:nonzero;stroke:none"
       id="text717"
       x="197.48599"
       y="-222.175"><tspan
         x="197.48599 202.56599 208.356 212.866 217.886"
         y="-222.175"
         sodipodi:role="line"
         id="tspan715"></tspan></text><text
       transform="scale(1,-1)"
       style="font-variant:normal;font-weight:normal;font-size:10px;font-family:Generic1;-inkscape-font-specification:Generic1-Regular;writing-mode:lr-tb;fill:#000000;fill-opacity:1;fill-rule:nonzero;stroke:none"
       id="text721"
       x="406.44601"
       y="-190.995"><tspan
         x="406.44601 412.69601 417.92599 423.88599 429.91599 432.50601 434.746 440.78601 443.37601 445.616 447.72601 453.306 455.896 462.00601 468.01599 473.526 480.04599 482.63602 488.70599 495.056 500.78601 506.81601 509.40601 515.84601 520.966 523.12598 528.97601"
         y="-190.995"
         sodipodi:role="line"
         id="tspan719"></tspan></text><text
       transform="scale(1,-1)"
       style="font-variant:normal;font-weight:normal;font-size:10px;font-family:Generic1;-inkscape-font-specification:Generic1-Regular;writing-mode:lr-tb;fill:#000000;fill-opacity:1;fill-rule:nonzero;stroke:none"
       id="text725"
       x="173.386"
       y="-190.995"><tspan
         x="173.386 179.483 181.55 187.657 193.394 199.121 201.70801 203.815 210.332 212.439"
         y="-190.995"
         sodipodi:role="line"
         id="tspan723"></tspan></text><text
       transform="scale(1,-1)"
       style="font-variant:normal;font-weight:normal;font-size:10px;font-family:Generic1;-inkscape-font-specification:Generic1-Regular;writing-mode:lr-tb;fill:#000000;fill-opacity:1;fill-rule:nonzero;stroke:none"
       id="text729"
       x="215.045"
       y="-190.995"><tspan
         x="215.045 218.545"
         y="-190.995"
         sodipodi:role="line"
         id="tspan727"></tspan></text><text
       transform="scale(1,-1)"
       style="font-variant:normal;font-weight:normal;font-size:10px;font-family:Generic1;-inkscape-font-specification:Generic1-Regular;writing-mode:lr-tb;fill:#000000;fill-opacity:1;fill-rule:nonzero;stroke:none"
       id="text733"
       x="438.586"
       y="-159.815"><tspan
         x="438.586 443.866 446.10599 451.48599 453.556 458.966 461.556 467.92599 470.00601 471.97601 475.366 480.76599 485.78601 488.37601 494.16602 500.69601 505.67599 511.37601 513.966 519.94598 523.26599 528.966"
         y="-159.815"
         sodipodi:role="line"
         id="tspan731"></tspan></text><text
       transform="scale(1,-1)"
       style="font-variant:normal;font-weight:normal;font-size:10px;font-family:Generic1;-inkscape-font-specification:Generic1-Regular;writing-mode:lr-tb;fill:#000000;fill-opacity:1;fill-rule:nonzero;stroke:none"
       id="text737"
       x="193.386"
       y="-159.815"><tspan
         x="193.386 199.483 201.59 208.10699 210.214"
         y="-159.815"
         sodipodi:role="line"
         id="tspan735"></tspan></text><text
       transform="scale(1,-1)"
       style="font-variant:normal;font-weight:normal;font-size:10px;font-family:Generic1;-inkscape-font-specification:Generic1-Regular;writing-mode:lr-tb;fill:#000000;fill-opacity:1;fill-rule:nonzero;stroke:none"
       id="text741"
       x="212.806"
       y="-159.815"><tspan
         x="212.806 217.886"
         y="-159.815"
         sodipodi:role="line"
         id="tspan739"></tspan></text><text
       transform="scale(1,-1)"
       style="font-variant:normal;font-weight:normal;font-size:10px;font-family:Generic1;-inkscape-font-specification:Generic1-Regular;writing-mode:lr-tb;fill:#000000;fill-opacity:1;fill-rule:nonzero;stroke:none"
       id="text745"
       x="445.026"
       y="-128.63499"><tspan
         x="445.026 447.26599 449.50601 452.896 458.95599 465.366 471.88599 474.47601 480.57599 482.63599 488.70599 495.06601 500.79599 506.82599 509.41599 515.85602 520.97601 523.13599 528.98602"
         y="-128.63499"
         sodipodi:role="line"
         id="tspan743"></tspan></text><text
       transform="scale(1,-1)"
       style="font-variant:normal;font-weight:normal;font-size:10px;font-family:Generic1;-inkscape-font-specification:Generic1-Regular;writing-mode:lr-tb;fill:#000000;fill-opacity:1;fill-rule:nonzero;stroke:none"
       id="text749"
       x="173.386"
       y="-128.63499"><tspan
         x="173.386 179.483 181.55 187.657 193.394 199.121 201.70801 203.815 210.332 212.439"
         y="-128.63499"
         sodipodi:role="line"
         id="tspan747"></tspan></text><text
       transform="scale(1,-1)"
       style="font-variant:normal;font-weight:normal;font-size:10px;font-family:Generic1;-inkscape-font-specification:Generic1-Regular;writing-mode:lr-tb;fill:#000000;fill-opacity:1;fill-rule:nonzero;stroke:none"
       id="text753"
       x="215.045"
       y="-128.63499"><tspan
         x="215.045 218.545"
         y="-128.63499"
         sodipodi:role="line"
         id="tspan751"></tspan></text><text
       transform="scale(1,-1)"
       style="font-variant:normal;font-weight:normal;font-size:10px;font-family:Generic1;-inkscape-font-specification:Generic1-Regular;writing-mode:lr-tb;fill:#000000;fill-opacity:1;fill-rule:nonzero;stroke:none"
       id="text757"
       x="353.87601"
       y="-97.455002"><tspan
         x="353.87601 359.53201 365.228 367.46399 373.98999 380.01599 382.60199 388.828 395.354 401.51999 404.10599 406.34201 408.448 413.46399 419.25 426.26599 428.85199 433.74802 440.29401 446.14001 452.65601 455.242 460.258 465.29401 471.81 474.396 480.492 482.55801 488.634 494.98999 500.716 506.742 509.328 515.76398 520.89001 523.04602 528.89203"
         y="-97.455002"
         sodipodi:role="line"
         id="tspan755"></tspan></text><text
       transform="scale(1,-1)"
       style="font-variant:normal;font-weight:normal;font-size:10px;font-family:Generic1;-inkscape-font-specification:Generic1-Regular;writing-mode:lr-tb;fill:#000000;fill-opacity:1;fill-rule:nonzero;stroke:none"
       id="text761"
       x="173.496"
       y="-97.455002"><tspan
         x="173.496 179.593 181.66 187.767 193.504 199.231 201.81799 203.925 210.442 212.549"
         y="-97.455002"
         sodipodi:role="line"
         id="tspan759"></tspan></text><text
       transform="scale(1,-1)"
       style="font-variant:normal;font-weight:normal;font-size:10px;font-family:Generic1;-inkscape-font-specification:Generic1-Regular;writing-mode:lr-tb;fill:#000000;fill-opacity:1;fill-rule:nonzero;stroke:none"
       id="text765"
       x="215.155"
       y="-97.455002"><tspan
         x="215.155 220.185"
         y="-97.455002"
         sodipodi:role="line"
         id="tspan763"></tspan></text></g></svg>
